# Blender 5.0.1
# www.blender.org
mtllib mtkopijamargaretablend.mtl
o Plane.003
v -12.811254 0.441383 47.655941
v -10.678976 0.441383 47.655941
v -10.678976 0.333264 22.880871
v -12.811254 0.333264 22.914200
v -12.811254 0.333264 24.764851
v -16.998260 0.333264 21.398043
v -16.998260 0.333264 24.005756
v -10.678976 -0.879011 34.266884
v -10.678976 -0.879011 36.488914
v -8.218033 -0.879011 34.266884
v -8.218033 -0.864412 36.488914
v -10.197487 -0.879011 36.488914
v -10.197487 -1.787170 47.672295
v -10.143988 -0.879011 34.266884
v -8.218033 -1.787170 14.341549
v -10.143988 -1.787170 14.341549
v -8.218033 -1.787170 15.419142
v -8.218033 -1.787170 20.374798
v -0.411492 -1.787170 15.419142
v -0.411492 -1.787170 20.374798
v -8.218033 -1.689081 45.004868
v 25.552471 -1.787170 47.672295
v 23.133148 -1.787170 45.004868
v 25.517632 -0.492034 19.794947
v 23.167988 -0.492034 19.218491
v 23.133148 -0.449271 14.250019
v 23.175198 -1.787170 22.275820
v 25.510422 -1.787170 22.908169
v 25.552471 -0.449271 14.250019
v 22.204479 -1.787170 45.004868
v 22.366261 -1.787170 45.004868
v 22.199371 -1.787170 47.068863
v 22.377419 -1.787170 47.068863
v -12.811254 -0.889335 36.460846
v -12.811254 -0.889335 34.233944
v -12.811254 0.302724 45.135941
v -10.678976 0.248616 45.208191
v -10.678976 0.279410 25.737057
v -12.811254 0.274249 25.780735
v -15.407009 0.333264 22.119518
v -16.202635 0.333264 21.837385
v -11.745114 0.333264 22.880871
v -10.678976 0.333264 20.759245
v -11.745114 0.333264 20.759245
vn -0.0000 1.0000 -0.0000
vn 0.0081 0.9998 0.0197
vn 0.0044 0.9998 0.0200
vn 0.0711 0.9964 -0.0454
vn -0.0010 1.0000 0.0081
vn -0.0994 0.9175 0.3851
vn 0.0043 1.0000 -0.0070
vt 0.000000 0.500000
vt 0.000000 1.000000
vt 0.500000 1.000000
vt 0.000000 0.437500
vt 1.000000 0.750000
vt 1.000000 1.000000
vt 1.000000 0.250000
vt 1.000000 0.500000
vt 0.000000 0.000000
vt 1.000000 0.000000
vt 1.000000 0.125000
vt 0.000000 0.375000
vt 0.000000 0.250000
vt 0.000000 0.125000
s 0
usemtl Material.009
f 5/1/1 4/2/1 40/2/1 41/2/1 6/2/1 7/1/1
f 42/3/2 4/2/2 5/1/2 39/4/2 38/5/2 3/6/2
f 13/7/3 22/7/3 28/7/3 27/7/3 23/7/3 31/7/3 33/7/3 32/7/3 30/7/3 21/7/3 11/7/3 12/7/3
f 14/8/4 10/8/4 18/8/4 17/8/4 15/8/4 16/8/4
f 17/8/1 18/8/1 20/8/1 19/8/1
f 25/7/5 24/7/5 29/7/5 26/7/5
f 27/7/6 28/7/6 24/7/6 25/7/6
f 42/3/1 3/6/1 43/6/1 44/3/1
f 1/9/7 2/10/7 37/11/7 9/7/7 12/7/7 11/7/7 10/8/7 14/8/7 8/8/7 38/5/7 39/4/7 35/12/7 34/13/7 36/14/7
l 8 35
l 9 34
